/vscmnt/brussel_pixiu_data/_data_brussel/112/vsc11236/PredSimResults/SUBJ09opt3D/weighted-expIG/worker_04.mot
version=1
nRows=11
nColumns=50
inDegrees=yes
endheader
                time	         pelvis_tilt	         pelvis_list	     pelvis_rotation	           pelvis_tx	           pelvis_ty	           pelvis_tz	       hip_flexion_r	     hip_adduction_r	      hip_rotation_r	        knee_angle_r	       ankle_angle_r	         mtp_angle_r	       hip_flexion_l	     hip_adduction_l	      hip_rotation_l	        knee_angle_l	       ankle_angle_l	         mtp_angle_l	    lumbar_extension	      lumbar_bending	     lumbar_rotation	 ercspn_r/activation	 intobl_r/activation	 extobl_r/activation	    abd_r/activation	    add_r/activation	hamstrings_r/activation	bifemsh_r/activation	glut_max_r/activation	iliopsoas_r/activation	rect_fem_r/activation	  vasti_r/activation	gastroc_r/activation	 soleus_r/activation	tib_ant_r/activation	 ercspn_l/activation	 intobl_l/activation	 extobl_l/activation	    abd_l/activation	    add_l/activation	hamstrings_l/activation	bifemsh_l/activation	glut_max_l/activation	iliopsoas_l/activation	rect_fem_l/activation	  vasti_l/activation	gastroc_l/activation	 soleus_l/activation	tib_ant_l/activation	
          1.32937425	         -3.98535171	         -0.77841894	          7.02034253	          1.48889916	          0.99254502	         -0.00097445	         27.51555407	         -0.93748168	         -6.39424389	         -3.78473016	          3.64248462	          0.22696027	        -12.44963333	         -1.89448673	         -4.55363119	        -10.22769473	          5.58799547	         35.44396218	        -13.51931362	         -2.22850654	         -8.73820655	          0.02918470	          0.19518805	          0.04337196	          0.01000000	          0.24968783	          0.05893484	          0.08980744	          0.02183714	          0.13561032	          0.01849712	          0.01197549	          0.01000000	          0.00999999	          0.31652135	          0.00999999	          0.00999999	          0.00999999	          0.04058908	          0.00999999	          0.01636280	          0.31215319	          0.01608182	          0.06443035	          0.01000000	          0.00999999	          0.35346747	          0.25993443	          0.01492213	
          1.34266799	         -4.06799130	         -0.87299523	          7.03613968	          1.50833442	          0.99028419	         -0.00009713	         27.60158141	         -0.72865304	         -6.66024223	         -5.55222542	          3.13905893	          0.22338761	        -13.11155739	         -2.19163448	         -4.98298219	        -10.83631931	          4.61005300	         37.08302374	        -12.98489411	         -1.75496072	         -8.90630233	          0.02389129	          0.15978558	          0.03550531	          0.00999999	          0.25314661	          0.05684968	          0.07351850	          0.08793950	          0.11101383	          0.01514219	          0.01000000	          0.01492217	          0.01612361	          0.32643020	          0.02628161	          0.00999999	          0.00999999	          0.03322719	          0.01221553	          0.03155947	          0.27807124	          0.01316496	          0.10052137	          0.00999999	          0.00999999	          0.32705357	          0.24006920	          0.01221561	
          1.35596173	         -4.12683254	         -1.01518890	          7.02854536	          1.52829906	          0.98821991	          0.00080484	         27.52716965	         -0.51806834	         -6.83514212	         -7.31077436	          2.66107163	          0.20833649	        -13.63695596	         -2.55930656	         -5.43181195	        -11.76437063	          3.49830554	         38.75172950	        -12.40591730	         -1.21929843	         -9.03601210	          0.01955798	          0.13080428	          0.02906549	          0.06686158	          0.21250290	          0.06299796	          0.06018400	          0.11812902	          0.09087856	          0.01239575	          0.00999999	          0.01221565	          0.01319917	          0.37534049	          0.02151475	          0.00999999	          0.00999999	          0.02720057	          0.00999999	          0.02675106	          0.23126901	          0.01077715	          0.08385155	          0.00999999	          0.00999999	          0.29663051	          0.21604818	          0.00999999	
          1.36925547	         -4.16659723	         -1.17079036	          6.98936073	          1.54844856	          0.98657469	          0.00180218	         27.35229995	         -0.29411005	         -7.09228840	         -8.90716082	          2.02065648	          0.18448954	        -13.94333417	         -2.96679215	         -5.90375465	        -13.10609447	          2.20581204	         40.40274294	        -11.82483112	         -0.66967655	         -9.12411732	          0.02342303	          0.10707949	          0.02379370	          0.11504841	          0.23369895	          0.06123246	          0.04926805	          0.12983934	          0.07439535	          0.01014746	          0.03415460	          0.01000002	          0.01080515	          0.40984119	          0.02979234	          0.00999999	          0.00999999	          0.02226703	          0.01000000	          0.04004666	          0.18932232	          0.00999999	          0.11093392	          0.00999999	          0.00999999	          0.24930470	          0.18282345	          0.00999999	
          1.38254922	         -4.18899228	         -1.33630401	          6.92288593	          1.56846565	          0.98551263	          0.00289594	         27.17764430	         -0.06380746	         -7.40250826	        -10.55324008	          1.57234602	          0.15184625	        -13.95068889	         -3.41890771	         -6.39346861	        -14.96840904	          0.76812670	         41.86050878	        -11.27663921	         -0.11014473	         -9.17067675	          0.02446288	          0.08765782	          0.01947809	          0.16334477	          0.23382650	          0.06304226	          0.04033200	          0.13619782	          0.06090180	          0.00999999	          0.13493179	          0.00999999	          0.00999999	          0.42655948	          0.07168304	          0.00999999	          0.00999999	          0.01822832	          0.04385823	          0.05398865	          0.15498375	          0.00999999	          0.09081317	          0.00999999	          0.00999999	          0.20408675	          0.14966362	          0.00999999	
          1.39584296	         -4.19722874	         -1.51061444	          6.83527903	          1.58809134	          0.98520316	          0.00406670	         27.00499590	          0.17874231	         -7.70078720	        -12.24000060	          1.45589525	          0.11445370	        -13.59901490	         -3.92090308	         -6.90720619	        -17.41377866	         -0.78718182	         42.87580914	        -10.78536549	          0.45790941	         -9.17789539	          0.02344360	          0.07175877	          0.01594523	          0.18217541	          0.25042164	          0.06219803	          0.03301673	          0.16500931	          0.04985566	          0.00999999	          0.20566188	          0.00999999	          0.00999999	          0.41768590	          0.08292678	          0.00999999	          0.00999999	          0.01492214	          0.12936473	          0.06426075	          0.12687339	          0.00999999	          0.09295750	          0.00999999	          0.00999999	          0.16707027	          0.12251820	          0.00999999	
          1.40913670	         -4.19388255	         -1.67563856	          6.72533425	          1.60715565	          0.98572116	          0.00527322	         26.79811825	          0.42287909	         -7.95983470	        -13.89486388	          1.73228557	          0.09100153	        -12.85764780	         -4.45947343	         -7.48699470	        -20.48193358	         -2.32281489	         42.98693138	        -10.36738274	          1.01683800	         -9.14290483	          0.02226701	          0.05874344	          0.01305314	          0.18502321	          0.26492809	          0.06645134	          0.02702828	          0.17162818	          0.04081303	          0.00999999	          0.25033058	          0.00999999	          0.00999999	          0.37033563	          0.08769536	          0.00999999	          0.00999999	          0.01221562	          0.18928262	          0.06543110	          0.10386158	          0.00999999	          0.07609724	          0.00999999	          0.00999999	          0.13676769	          0.10029631	          0.00999999	
          1.42243044	         -4.18047745	         -1.80822621	          6.59177147	          1.62562722	          0.98703307	          0.00647634	         26.49050321	          0.65641697	         -8.15549024	        -15.38359439	          2.34027760	          0.11607454	        -11.74028547	         -5.02409500	         -8.14307219	        -24.13389483	         -3.85967973	         42.04189483	        -10.02435220	          1.54270294	         -9.06344913	          0.01822831	          0.04808877	          0.01068562	          0.17749686	          0.25749739	          0.06688663	          0.02212600	          0.17990385	          0.03341052	          0.00999999	          0.28267926	          0.01000000	          0.01000000	          0.31162436	          0.07747716	          0.00999999	          0.00999999	          0.00999999	          0.24549515	          0.06773130	          0.08502357	          0.00999999	          0.06229502	          0.00999999	          0.00999999	          0.11196128	          0.08210495	          0.00999999	
          1.43572419	         -4.15783390	         -1.88761904	          6.43072552	          1.64353012	          0.98904713	          0.00763565	         26.01131074	          0.86988027	         -8.26753214	        -16.54840925	          3.06583712	          0.25083943	        -10.30440338	         -5.59924424	         -8.85211485	        -28.20128592	         -5.58948447	         40.20115931	         -9.75263519	          2.01531420	         -8.93434204	          0.01492213	          0.03936661	          0.00999999	          0.17626833	          0.24864596	          0.07042253	          0.01811287	          0.16802768	          0.02735064	          0.00999999	          0.28355626	          0.00999999	          0.00999999	          0.25796354	          0.06342469	          0.00999999	          0.00999999	          0.00999999	          0.27167134	          0.06402017	          0.08119982	          0.00999999	          0.05099619	          0.00999999	          0.00999999	          0.09165417	          0.06721306	          0.01645376	
          1.44901793	         -4.12587949	         -1.89686755	          6.23959297	          1.66089584	          0.99160464	          0.00871819	         25.33731079	          1.04811123	         -8.28654750	        -17.33430463	          3.77700096	          0.50832606	         -8.62059650	         -6.16602699	         -9.55696961	        -32.53121290	         -7.42429247	         37.31598762	         -9.54832355	          2.41782936	         -8.75007489	          0.01221561	          0.03222645	          0.00999999	          0.17925313	          0.20354761	          0.06983184	          0.01482763	          0.14955578	          0.02238989	          0.00999999	          0.28002718	          0.00999999	          0.00999999	          0.21246073	          0.06739597	          0.03509613	          0.01583188	          0.00999999	          0.23923501	          0.05240843	          0.06647211	          0.00999999	          0.04174670	          0.00999999	          0.00999999	          0.07503028	          0.05502221	          0.06747217	
          1.46231167	         -4.08352917	         -1.83663941	          6.01988670	          1.67771771	          0.99451074	          0.00970963	         24.49248985	          1.18524313	         -8.21672540	        -17.78109875	          4.44018831	          0.89903309	         -6.76038182	         -6.69865487	        -10.14081685	        -37.01242985	         -8.98275871	         33.09059504	         -9.41251376	          2.74719354	         -8.50337030	          0.01000000	          0.02638133	          0.00999999	          0.15105256	          0.18318039	          0.06760942	          0.01213825	          0.12291213	          0.01832889	          0.00999999	          0.26742350	          0.00999999	          0.00999999	          0.17392542	          0.09965026	          0.06331063	          0.08143442	          0.00999999	          0.19584347	          0.04290279	          0.05441566	          0.00999999	          0.03417484	          0.00999999	          0.00999999	          0.06142157	          0.04504249	          0.17103181	
